# xmcd
#
# Track frame offsets: 
#        150
#        34205
#        67080
#        81320
#        105815
#        123322
#        141265
#        165847
#        179480
#        194517
#        211827
#        230830
#        243885
#
# Disc length: 3487 seconds
#
# Revision: 1
# Processed by: cddbd v1.5.2PL0 Copyright (c) Steve Scherf et al.
# Submitted via: ExactAudioCopyFreeDBPlugin 1.0
#
DISCID=b20d9d0d
DTITLE=Louis van Dijk Trio - Ballads in Blue
DYEAR=2004
DGENRE=Jazz
TTITLE0=Go Away Little Girl
TTITLE1=The Shadow of Your Smile
TTITLE2=I Can't Give You Anything But Love
TTITLE3=Round Midnight
TTITLE4=Where Ware You
TTITLE5=Estate
TTITLE6=The Summer Knows
TTITLE7=More Than You Know
TTITLE8=Chez Regine
TTITLE9=Triology
TTITLE10=Gone With The Wind
TTITLE11=Liz Anne
TTITLE12=It Might As Well Be Spring
EXTD=YEAR: 2004
EXTT0=
EXTT1=
EXTT2=
EXTT3=
EXTT4=
EXTT5=
EXTT6=
EXTT7=
EXTT8=
EXTT9=
EXTT10=
EXTT11=
EXTT12=
PLAYORDER=
